<?xml version="1.0" encoding="UTF-8" standalone="no"?>
<!-- Created with Inkscape (http://www.inkscape.org/) -->

<svg
   width="512"
   height="512"
   viewBox="0 0 512 512"
   version="1.1"
   id="svg5"
   xml:space="preserve"
   inkscape:export-filename="mahg_logo1.svg"
   inkscape:export-xdpi="96"
   inkscape:export-ydpi="96"
   xmlns:inkscape="http://www.inkscape.org/namespaces/inkscape"
   xmlns:sodipodi="http://sodipodi.sourceforge.net/DTD/sodipodi-0.dtd"
   xmlns="http://www.w3.org/2000/svg"
   xmlns:svg="http://www.w3.org/2000/svg"><sodipodi:namedview
     id="namedview7"
     pagecolor="#ffffff"
     bordercolor="#000000"
     borderopacity="0.25"
     inkscape:showpageshadow="2"
     inkscape:pageopacity="0.0"
     inkscape:pagecheckerboard="0"
     inkscape:deskcolor="#d1d1d1"
     inkscape:document-units="px"
     showgrid="false"
     showguides="true"><sodipodi:guide
       position="256.78979,312.85689"
       orientation="1,0"
       id="guide462"
       inkscape:locked="false" /></sodipodi:namedview><defs
     id="defs2"><filter
       id="kjkjpw36NbIpmarYZPU2R"
       x="0"
       y="0"
       width="1"
       height="1"><feColorMatrix
         type="matrix"
         values="0 0 0 0 0.08984375  0 0 0 0 0.1171875  0 0 0 0 0.375  0 0 0 1 0"
         id="feColorMatrix1644" /></filter><filter
       id="colors1434621059"
       x="0"
       y="0"
       width="1"
       height="1"><feColorMatrix
         type="matrix"
         values="0 0 0 0 0.0390625  0 0 0 0 0.3359375  0 0 0 0 0.578125  0 0 0 1 0"
         class="icon-feColorMatrix "
         id="feColorMatrix1669" /></filter></defs><g
     inkscape:label="Capa 1"
     inkscape:groupmode="layer"
     id="layer1"><g
       id="g1799"
       transform="matrix(0.43980456,0,0,0.4755788,-271.15562,-166.21621)"><svg
         version="1.0"
         width="100%"
         height="100%"
         viewBox="0 0 340 250"
         preserveAspectRatio="xMidYMid"
         color-interpolation-filters="sRGB"
         id="svg1571"><defs
           id="defs1569" /></svg><rect
         x="0"
         y="0"
         width="100%"
         height="100%"
         fill="#ffffff"
         fill-opacity="1"
         id="rect1573" /><svg
         version="1.0"
         x="0"
         y="0"
         width="2400"
         height="1800"
         viewBox="0 0 340 250"
         preserveAspectRatio="xMidYMid"
         color-interpolation-filters="sRGB"
         id="svg1696"><defs
           id="defs1640" /><g
           fill="#171e60"
           class="icon-text-wrapper icon-svg-group iconsvg"
           transform="translate(94.129997,67.369217)"
           id="g1692"><g
             fill="#171e60"
             class="iconsvg-imagesvg icon_container"
             transform="translate(40.319218)"
             id="g1680"><rect
               fill="#171e60"
               fill-opacity="0"
               stroke-width="2"
               x="0"
               y="0"
               width="71.10157"
               height="71.10157"
               class="image-rect"
               id="rect1642" /><svg
               viewBox="0 0 60 60"
               x="0"
               y="0"
               width="71.10157"
               height="71.10157"
               class="image-svg-svg bn"
               style="overflow:visible"
               version="1.1"
               id="svg1667"><g
                 hollow-target=""
                 id="g1665"><g
                   id="g1657"><svg
                     fill="#000000"
                     xml:space="preserve"
                     version="1.1"
                     style="overflow:visible"
                     viewBox="0 0 333 333"
                     x="0"
                     y="0"
                     fill-rule="evenodd"
                     clip-rule="evenodd"
                     width="60"
                     height="60"
                     filtersec="colorsf151897271"
                     filter="url(#kjkjpw36NbIpmarYZPU2R)"
                     id="svg1655"><g
                       id="g1653"><defs
                         id="defs1647" /><g
                         id="g1651"><path
                           class="fil0"
                           d="m 79,0 h 175 c 22,0 42,9 56,23 v 0 0 c 14,15 23,34 23,56 v 175 c 0,22 -9,42 -23,56 v 0 0 c -14,14 -34,23 -56,23 H 79 c -22,0 -41,-9 -56,-23 v 0 0 C 9,296 0,276 0,254 V 79 C 0,57 9,38 23,23 v 0 0 C 38,9 57,0 79,0 Z M 254,16 H 79 C 62,16 46,23 35,35 v 0 C 23,46 16,62 16,79 v 175 c 0,18 7,33 19,45 v 0 c 11,11 27,18 44,18 h 175 c 18,0 33,-7 45,-18 v 0 c 11,-12 18,-27 18,-45 V 79 c 0,-17 -7,-33 -18,-44 v 0 C 287,23 272,16 254,16 Z"
                           id="path1649" /></g></g></svg></g><g
                   filter="url(#colors1434621059)"
                   id="g1663"><svg
                     viewBox="0 0 50.328 51.12"
                     width="33"
                     height="33"
                     x="13.5"
                     y="13.5"
                     class="image-svg-letter"
                     version="1.1"
                     id="svg1661"><path
                       transform="translate(-6.408,51.12)"
                       d="M 56.74,0 H 51.7 V -41.98 L 33.05,-9.5 H 30.1 L 11.45,-41.98 V 0 H 6.41 v -51.12 h 5.18 l 19.95,34.99 20.08,-34.99 h 5.12 z"
                       id="path1659" /></svg></g></g></svg><defs
               id="defs1678" /></g><g
             transform="translate(0,77.10157)"
             id="g1690"><g
               fill-rule=""
               class="tp-name iconsvg-namesvg"
               id="g1688"><g
                 id="g1686"><g
                   id="g1684"><path
                     d="M 41.76,0 H 38.05 V -30.9 L 24.33,-7 H 22.15 L 8.43,-30.9 V 0 H 4.72 V -37.63 H 8.53 L 23.21,-11.87 38,-37.63 h 3.76 z m 5.36,0 15.74,-37.63 h 3.12 L 81.62,0 H 77.7 L 72.82,-11.77 H 55.91 L 51.09,0 Z m 9.59,-14.68 h 15.26 l -7.58,-18.6 z m 56.34,-22.95 h 3.66 V 0 h -3.66 V -17.6 H 90.74 V 0 h -3.71 v -37.63 h 3.71 v 16.75 h 22.31 z M 153.33,0 v -5.51 q -5.25,5.78 -12.08,5.78 v 0 q -3.82,0 -7.03,-1.65 -3.2,-1.64 -5.56,-4.34 -2.36,-2.71 -3.69,-6.13 -1.32,-3.41 -1.32,-7.02 v 0 q 0,-3.76 1.3,-7.21 1.3,-3.44 3.63,-6.06 2.33,-2.63 5.51,-4.19 3.18,-1.56 6.94,-1.56 v 0 q 2.76,0 5.04,0.6 2.28,0.61 4.05,1.7 1.78,1.09 3.08,2.6 1.3,1.51 2.2,3.31 v 0 l -2.87,1.91 q -1.85,-3.5 -4.82,-5.14 -2.97,-1.65 -6.73,-1.65 v 0 q -3.13,0 -5.64,1.33 -2.52,1.32 -4.3,3.52 -1.77,2.2 -2.73,5.04 -0.95,2.83 -0.95,5.86 v 0 q 0,3.18 1.09,6.04 1.08,2.86 2.99,5.01 1.91,2.14 4.48,3.41 2.57,1.28 5.59,1.28 v 0 q 3.23,0 6.17,-1.51 2.95,-1.51 5.65,-4.8 v 0 -6.25 h -8.37 v -2.87 h 11.5 V 0 Z"
                     transform="translate(-4.7199998,37.889999)"
                     id="path1682" /></g></g></g></g></g><defs
           v-gra="od"
           id="defs1694" /></svg></g></g></svg>
