<?xml version="1.0" encoding="UTF-8" standalone="no"?>
<!-- Created with Inkscape (http://www.inkscape.org/) -->

<svg
   width="512"
   height="512"
   viewBox="0 0 512 512"
   version="1.1"
   id="svg5"
   xml:space="preserve"
   xmlns:inkscape="http://www.inkscape.org/namespaces/inkscape"
   xmlns:sodipodi="http://sodipodi.sourceforge.net/DTD/sodipodi-0.dtd"
   xmlns="http://www.w3.org/2000/svg"
   xmlns:svg="http://www.w3.org/2000/svg"><sodipodi:namedview
     id="namedview7"
     pagecolor="#ffffff"
     bordercolor="#000000"
     borderopacity="0.25"
     inkscape:showpageshadow="2"
     inkscape:pageopacity="0.0"
     inkscape:pagecheckerboard="0"
     inkscape:deskcolor="#d1d1d1"
     inkscape:document-units="px"
     showgrid="false"
     showguides="true"><sodipodi:guide
       position="256.78979,312.85689"
       orientation="1,0"
       id="guide462"
       inkscape:locked="false" /></sodipodi:namedview><defs
     id="defs2"><filter
       id="kTkc0mRnhcIpMGQM9PlaR"
       x="0"
       y="0"
       width="1"
       height="1"><feColorMatrix
         type="matrix"
         values="0 0 0 0 0.08984375  0 0 0 0 0.1171875  0 0 0 0 0.375  0 0 0 1 0"
         id="feColorMatrix87" /></filter><filter
       id="colors238525040"
       x="0"
       y="0"
       width="1"
       height="1"><feColorMatrix
         type="matrix"
         values="0 0 0 0 0.0390625  0 0 0 0 0.3359375  0 0 0 0 0.578125  0 0 0 1 0"
         class="icon-feColorMatrix "
         id="feColorMatrix112" /></filter></defs><g
     inkscape:label="Capa 1"
     inkscape:groupmode="layer"
     id="layer1"><g
       id="g302"
       transform="translate(-943.09774,-642.76146)"><svg
         version="1.0"
         width="100%"
         height="100%"
         viewBox="0 0 340 250"
         preserveAspectRatio="xMidYMid"
         color-interpolation-filters="sRGB"
         id="svg14"><defs
           id="defs12" /></svg><rect
         x="0"
         y="0"
         width="100%"
         height="100%"
         fill="rgba(255,255,255,0)"
         fill-opacity="1"
         id="rect16" /><svg
         version="1.0"
         x="0"
         y="0"
         width="2400"
         height="1800"
         viewBox="0 0 340 250"
         preserveAspectRatio="xMidYMid"
         color-interpolation-filters="sRGB"
         id="svg127"><defs
           id="defs83" /><g
           fill="#171e60"
           class="iconsvg-imagesvg"
           transform="translate(134.44921,89.449215)"
           id="g123"><rect
             fill="#171e60"
             fill-opacity="0"
             stroke-width="2"
             x="0"
             y="0"
             width="71.10157"
             height="71.10157"
             class="image-rect"
             id="rect85" /><svg
             viewBox="0 0 60 60"
             x="0"
             y="0"
             width="71.10157"
             height="71.10157"
             class="image-svg-svg bn"
             style="overflow:visible"
             version="1.1"
             id="svg110"><g
               hollow-target=""
               id="g108"><g
                 id="g100"><svg
                   fill="#000000"
                   xml:space="preserve"
                   version="1.1"
                   style="overflow:visible"
                   viewBox="0 0 333 333"
                   x="0"
                   y="0"
                   fill-rule="evenodd"
                   clip-rule="evenodd"
                   width="60"
                   height="60"
                   filtersec="colorsf3024319008"
                   filter="url(#kTkc0mRnhcIpMGQM9PlaR)"
                   id="svg98"><g
                     id="g96"><defs
                       id="defs90" /><g
                       id="g94"><path
                         class="fil0"
                         d="m 79,0 h 175 c 22,0 42,9 56,23 v 0 0 c 14,15 23,34 23,56 v 175 c 0,22 -9,42 -23,56 v 0 0 c -14,14 -34,23 -56,23 H 79 c -22,0 -41,-9 -56,-23 v 0 0 C 9,296 0,276 0,254 V 79 C 0,57 9,38 23,23 v 0 0 C 38,9 57,0 79,0 Z M 254,16 H 79 C 62,16 46,23 35,35 v 0 C 23,46 16,62 16,79 v 175 c 0,18 7,33 19,45 v 0 c 11,11 27,18 44,18 h 175 c 18,0 33,-7 45,-18 v 0 c 11,-12 18,-27 18,-45 V 79 c 0,-17 -7,-33 -18,-44 v 0 C 287,23 272,16 254,16 Z"
                         id="path92" /></g></g></svg></g><g
                 filter="url(#colors238525040)"
                 id="g106"><svg
                   viewBox="0 0 50.328 51.12"
                   width="33"
                   height="33"
                   x="13.5"
                   y="13.5"
                   class="image-svg-letter"
                   version="1.1"
                   id="svg104"><path
                     transform="translate(-6.408,51.12)"
                     d="M 56.74,0 H 51.7 V -41.98 L 33.05,-9.5 H 30.1 L 11.45,-41.98 V 0 H 6.41 v -51.12 h 5.18 l 19.95,34.99 20.08,-34.99 h 5.12 z"
                     id="path102" /></svg></g></g></svg><defs
             id="defs121" /></g><defs
           v-gra="od"
           id="defs125" /></svg></g></g></svg>
